<svg width="783" height="640" viewBox="0 0 783 640" fill="none" xmlns="http://www.w3.org/2000/svg">
<style type="text/css">
  #back {
    opacity: 0;
    animation: appear 1s ease-in forwards;
  }
  #desk {
    opacity: 0;
    transform: rotateX(90deg);
    animation: appear 3s 0.8s forwards, desk 1s 0.8s forwards;
    transform-origin: center;
    transform-box: fill-box;
  }
  #chair {
    opacity: 0;
    transform: translateX(150px);
    animation: appear 1s 1.2s forwards, chair 1.5s 1.2s forwards;
  }
  #person {
    opacity: 0;
    transform: translateX(-250px);
    animation: appear 1.5s 1.5s forwards, person 1.5s 1.5s ease-in-out forwards;
  }
  #glasses {
    opacity: 0;
    transform: translateY(-160px);
    animation: appear 1s 2.5s forwards, laptop 1s 2.5s ease-in-out forwards;
  }
  #bookboard {
    opacity: 0;
    animation: appear 1s 2.2s forwards;
  }
  #books {
    opacity: 0;
    transform: translateX(150px);
    animation: appear 1.5s 3s forwards, chair 1s 2.5s forwards;
  }
  #laptop {
    opacity: 0;
    transform: translatey(-160px);
    animation: appear 1s 3.5s forwards, laptop 1.5s 3.5s ease-in-out forwards;
  }
  #laptop-light {
    opacity: 0;
    animation: appear 2s 6s ease-in-out forwards infinite alternate;
  }
  #lamp {
    opacity: 1;
    transform: rotateY(90deg);
    animation: lamp-1 1.5s 5s forwards, lamp-2 1.5s 6.5s ease-in-out forwards,
      lamp-3 4s 8.5s ease-in-out infinite alternate;
    transform-origin: top;
    transform-box: fill-box;
  }
  #donica {
    opacity: 0;
    animation: appear 2s 5s forwards;
  }
  #flower {
    opacity: 0;
    animation: appear 1.5s 6s forwards;
  }
  #blue-leaf {
    animation: blueLeaf 1s ease-in-out infinite alternate;
    transform-origin: bottom;
    transform-box: fill-box;
  }
  #yellow-leaf {
    animation: yellowLeaf 1.4s ease-in-out infinite alternate;
    transform-origin: bottom;
    transform-box: fill-box;
  }
  #purple-leaf {
    animation: purpleLeaf 1.2s ease-in-out infinite alternate;
    transform-origin: bottom;
    transform-box: fill-box;
  }
  #dark-leaf {
    animation: darkLeaf 0.8s ease-in-out infinite alternate;
    transform-origin: bottom;
    transform-box: fill-box;
  }
  #clock {
    opacity: 0;
    transform: rotateX(90deg);
    animation: appear 2s 5.5s forwards, desk 1s 5.5s forwards;
    transform-origin: center;
    transform-box: fill-box;
  }
  #minutes {
    animation: clock 1.2s 6.5s linear infinite;
    transform-origin: bottom;
    transform-box: fill-box;
  }
  #hours {
    animation: clock 14.4s 6.5s linear infinite;
    transform-origin: left;
    transform-box: fill-box;
  }
  #statistic {
    opacity: 0;
    transform: rotateX(90deg);
    animation: appear 2s 7.1s forwards, desk 1s 7.3s forwards,
      mail 1.8s 8.6s ease-in-out infinite alternate;
    transform-origin: center;
    transform-box: fill-box;
  }
  #mail {
    opacity: 0;
    transform: rotateX(90deg);
    animation: appear 2s 6.5s forwards, desk 1s 6.7s forwards,
      mail 2s 7.7s ease-in-out infinite alternate;
    transform-origin: center;
    transform-box: fill-box;
  }
  #cloud {
    opacity: 0;
    transform: rotateX(90deg);
    animation: appear 2s 6.8s forwards, desk 1s 7s forwards,
      mail 2s 8.2s ease-in-out infinite alternate;
    transform-origin: center;
    transform-box: fill-box;
  }
  #files {
    opacity: 0;
    transform: rotateX(90deg);
    animation: appear 2s 7.4s forwards, desk 1s 7.7s forwards,
      mail 1.8s 9s ease-in-out infinite alternate;
    transform-origin: center;
    transform-box: fill-box;
  }

@keyframes appear {
  from {
    opacity: 0;
  }
  to {
    opacity: 1;
  }
}
@keyframes desk {
  from {
    transform: rotateX(90deg);
  }
  to {
    transform: rotateX(0deg);
  }
}
@keyframes chair {
  from {
    transform: translateX(150px);
  }
  to {
    transform: translateX(0px);
  }
}
@keyframes laptop {
  from {
    transform: translatey(-160px);
  }
  to {
    transform: translatey(0px);
  }
}
@keyframes lamp-1 {
  from {
    transform: rotatey(90deg);
  }
  to {
    transform: rotatey(0deg);
  }
}
@keyframes lamp-2 {
  0% {
    transform: rotateZ(0deg);
  }
  100% {
    transform: rotateZ(-25deg);
  }
}
@keyframes lamp-3 {
  0% {
    transform: rotateZ(-25deg);
  }
  100% {
    transform: rotateZ(25deg);
  }
}
@keyframes blueLeaf {
  from {
    transform: rotateZ(-8deg);
  }
  to {
    transform: rotateZ(5deg);
  }
}
@keyframes yellowLeaf {
  from {
    transform: rotateZ(-20deg);
  }
  to {
    transform: rotateZ(0deg);
  }
}
@keyframes purpleLeaf {
  from {
    transform: rotateZ(-18deg);
  }
  to {
    transform: rotateZ(-5deg);
  }
}
@keyframes darkLeaf {
  from {
    transform: rotateZ(-5deg);
  }
  to {
    transform: rotateZ(15deg);
  }
}
@keyframes person {
  from {
    transform: translateX(-250px);
  }
  to {
    transform: translateX(0px);
  }
}
@keyframes clock {
  from {
    transform: rotateZ(0deg);
  }
  to {
    transform: rotateZ(360deg);
  }
}
@keyframes mail {
  from {
    transform: translateY(0px);
  }
  to {
    transform: translateY(-20px);
  }
}
</style>
<g id="example scene 2 1">
<g id="theRest">
<g id="Layer 2">
<path id="back" d="M80 189C235 374.5 17.2754 404.956 0.868155 581.984C-15.5391 759.013 451.009 461.947 613.368 569.984C775.727 678.022 626.024 419.264 714 308.5C801.976 197.736 773.5 -83.0001 543.5 24.4999C313.5 132 -75 3.49985 80 189Z" fill="#1B1B1B" fill-opacity="0.99"/>
<g id="chair">
<path id="Vector" d="M370.04 453.91C404.895 453.91 433.15 447.664 433.15 439.96C433.15 432.256 404.895 426.01 370.04 426.01C335.185 426.01 306.93 432.256 306.93 439.96C306.93 447.664 335.185 453.91 370.04 453.91Z" fill="#F8ECEC"/>
<path id="Vector 2" d="M370.04 439.96L334.59 550.91" stroke="#F8ECEC" stroke-width="4" stroke-miterlimit="10" stroke-linecap="round"/>
<path id="Vector 3" d="M370.04 439.96L405.49 550.91" stroke="#F8ECEC" stroke-width="4" stroke-miterlimit="10" stroke-linecap="round"/>
<path id="Vector 4" d="M346.23 514.48L385.75 489.14" stroke="#F8ECEC" stroke-width="2" stroke-miterlimit="10" stroke-linecap="round"/>
<path id="Vector 5" d="M354.17 489.14L393.7 514.48" stroke="#F8ECEC" stroke-width="2" stroke-miterlimit="10" stroke-linecap="round"/>
</g>
<g id="bookboard">
<path id="Vector 7" d="M781.43 178.83H635.43C634.751 178.83 634.2 179.381 634.2 180.06V180.82C634.2 181.499 634.751 182.05 635.43 182.05H781.43C782.109 182.05 782.66 181.499 782.66 180.82V180.06C782.66 179.381 782.109 178.83 781.43 178.83Z" fill="#774801"/>
<path id="Vector 8" d="M673.18 180.44H666.92C665.545 180.44 664.43 181.555 664.43 182.93C664.43 184.305 665.545 185.42 666.92 185.42H673.18C674.555 185.42 675.67 184.305 675.67 182.93C675.67 181.555 674.555 180.44 673.18 180.44Z" fill="#753F0E"/>
<path id="Vector 9" d="M749.94 180.44H743.68C742.305 180.44 741.19 181.555 741.19 182.93C741.19 184.305 742.305 185.42 743.68 185.42H749.94C751.315 185.42 752.43 184.305 752.43 182.93C752.43 181.555 751.315 180.44 749.94 180.44Z" fill="#753F0E"/>
</g>
<g id="person">
<path id="Vector 6" d="M432.15 319.86C431.99 324.78 432.06 342.01 431.25 349.38" stroke="#1F161E" stroke-miterlimit="10" stroke-linecap="round"/>
<path id="Vector 10" d="M523.19 537.68C523.19 540.05 521.8 555 524.57 556.38C527.34 557.76 557.79 558.6 559.17 557.21C560.55 555.82 561.38 552.92 560.17 552.09C558.96 551.26 547.17 548.91 545.57 547.8C543.97 546.69 541.76 540.8 542.57 537.68" fill="#463F45"/>
<path id="Vector 11" d="M432.15 342.25L449.29 336.1C448.55 304.83 441.24 234.96 430.86 224.57C428.42 222.14 380.16 217.9 371.55 217.9C320.17 217.9 304.93 223.76 301.06 227.64C289.06 239.64 285.32 295.24 285.32 314.71C285.32 334.18 340.32 344.28 340.32 344.28L404.79 348.71C404.79 348.71 418.93 350.17 431.16 350.89C431.43 347.14 432.15 342.25 432.15 342.25Z" fill="#78E5E1"/>
<path id="Vector 12" d="M483.22 360.38C487.91 358.99 534.55 351.38 544.71 361.38C554.87 371.38 586.85 514.75 586.85 518.05H561.1L526.34 443.24" fill="#463F45"/>
<path id="Vector 13" d="M313.41 347.63C312.24 353.48 305.21 359.76 305.21 391.63C305.21 435.7 341.31 436.63 354.27 436.63C394.65 436.63 459.98 424.63 464.39 422.43C467.32 427.33 521.25 537.43 521.5 539.89H546.33C546.33 539.89 530.94 375.17 503.17 356.49C494.15 350.49 334.12 344.07 313.41 347.63Z" fill="#3936B5"/>
<path id="Vector 14" d="M458.81 315.41C452.29 315.41 446.91 316.96 432.15 319.86L431.38 348.1C445.38 342.46 448.63 334.62 452.69 334.62C462.83 334.62 468.13 339.85 474.12 339.85C478.3 339.85 485.82 336.57 485.82 332.11C485.82 322.77 466.89 315.41 458.81 315.41Z" fill="#F8CDBA"/>
<path id="Vector 15" d="M562.56 516.07C562.56 518.45 561.17 533.39 563.94 534.78C566.71 536.17 597.16 536.99 598.54 535.61C599.92 534.23 600.75 531.32 599.54 530.49C598.33 529.66 586.54 527.3 584.94 526.19C583.34 525.08 581.13 519.19 581.94 516.07" fill="#463F45"/>
<path id="Vector 16" d="M380.64 224.55C380.64 228.32 358.75 228.43 358.75 224.55V193.89H380.64V224.55Z" fill="#F8CDBA"/>
<path id="Vector 17" d="M373.51 204C371.51 204 358.75 209.64 358.75 212.79V196.15C361.93 196.15 373.51 204 373.51 204Z" fill="#463F45"/>
<path id="Vector 18" d="M377.74 205.3C392.376 205.3 404.24 193.436 404.24 178.8C404.24 164.164 392.376 152.3 377.74 152.3C363.104 152.3 351.24 164.164 351.24 178.8C351.24 193.436 363.104 205.3 377.74 205.3Z" fill="#F8CDBA"/>
<path id="Vector 19" d="M405.09 158C401.81 163.21 394.95 165.6 387.52 165.6C381.19 165.6 371.97 163.76 365.41 167.5C361.86 169.5 357.79 174.05 356.97 183.16C356.97 184.72 355.2 190.77 355.2 192.72C355.2 194.05 353.7 194.92 351.2 194.92C349.91 194.92 347.36 192.83 347.36 189.64C347.36 185.95 348.83 184.64 348.83 181.51C348.83 178.38 345 175.37 345 166.67C345 154.14 353 146.42 358.66 146.42C363.82 146.42 365.44 147.62 366.09 148.13C366.09 136.74 381.09 131.54 387.04 131.54C393.84 131.54 397.04 134.33 397.04 137.88C397.04 143.54 394.34 148.35 392.97 149.43C396.071 146.64 400.099 145.104 404.27 145.12C412.06 145.12 414.68 150.24 414.68 153.74C414.68 161.35 405.55 168.4 402.15 168.4C401.295 166.59 400.291 164.854 399.15 163.21" fill="#463F45"/>
<path id="Vector 20" d="M357.79 187.95C360.91 187.95 363.44 185.42 363.44 182.3C363.44 179.18 360.91 176.65 357.79 176.65C354.67 176.65 352.14 179.18 352.14 182.3C352.14 185.42 354.67 187.95 357.79 187.95Z" fill="#F8CDBA"/>
<path id="Vector 21" d="M404.5 183.66C406.919 183.66 408.88 182.639 408.88 181.38C408.88 180.121 406.919 179.1 404.5 179.1C402.081 179.1 400.12 180.121 400.12 181.38C400.12 182.639 402.081 183.66 404.5 183.66Z" fill="#FA9E9F"/>
<path id="Vector 22" d="M376.95 183.66C379.369 183.66 381.33 182.639 381.33 181.38C381.33 180.121 379.369 179.1 376.95 179.1C374.531 179.1 372.57 180.121 372.57 181.38C372.57 182.639 374.531 183.66 376.95 183.66Z" fill="#FA9E9F"/>
<path id="Vector 23" d="M393.8 176.65C394.62 177.82 398.8 182.73 394.39 184.72" stroke="#1F161E" stroke-miterlimit="10" stroke-linecap="round"/>
<path id="Vector 24" d="M385.56 190.45C384.24 190.45 382.21 188.81 381.14 187.34" stroke="#1F161E" stroke-miterlimit="10" stroke-linecap="round"/>
<path id="Vector 25" d="M420.5 261.62C422.5 265.87 432.15 306.87 432.15 319.86" stroke="#1F161E" stroke-miterlimit="10" stroke-linecap="round"/>
<path id="Vector 26" d="M285.32 311.41C285.32 357.5 285.75 370.87 304.25 370.87C346.89 370.87 411.35 335.87 422.84 335.87C432.99 335.87 438.29 341.11 444.28 341.11C448.45 341.11 455.97 337.82 455.97 333.37C455.97 324.02 437.04 316.66 428.97 316.66C410.8 316.66 338.29 334.18 336.52 334.18C334.75 334.18 331.77 333.41 331.77 330.43C331.77 325.02 335.31 312.52 335.77 311.43L285.32 311.41Z" fill="#F8CDBA"/>
<path id="Vector 27" d="M346.42 271.21C345.2 274.72 335.69 310.99 334.59 315.41" stroke="#1F161E" stroke-miterlimit="10" stroke-linecap="round"/>
</g>
<g id="desk">
<path id="Vector 28" d="M707.458 551.747C708.177 554.481 710.977 556.115 713.712 555.396C716.447 554.678 718.081 551.878 717.362 549.143L666.163 354.401C665.444 351.666 662.644 350.032 659.909 350.751C657.175 351.47 655.54 354.27 656.259 357.004L707.458 551.747Z" fill="#594206"/>
<path id="Vector 29" d="M655.751 357.013C656.47 354.278 654.836 351.478 652.101 350.759C649.366 350.04 646.566 351.674 645.847 354.409L594.649 549.151C593.93 551.886 595.564 554.686 598.299 555.405C601.033 556.124 603.833 554.49 604.552 551.755L655.751 357.013Z" fill="#594206"/>
<path id="Vector 30" d="M585.102 357.011C585.821 354.277 584.187 351.477 581.453 350.758C578.718 350.039 575.918 351.673 575.199 354.408L524 549.15C523.281 551.885 524.915 554.685 527.65 555.404C530.385 556.123 533.185 554.489 533.904 551.754L585.102 357.011Z" fill="#9D7C28"/>
<path id="Vector 31" d="M635.92 548.152C636.626 550.895 639.423 552.546 642.166 551.839C644.909 551.132 646.559 548.335 645.852 545.592L595.512 350.273C594.805 347.53 592.009 345.88 589.266 346.587C586.523 347.294 584.873 350.09 585.579 352.833L635.92 548.152Z" fill="#9D7C28"/>
<path id="Vector 32" d="M296.681 357.017C297.4 354.282 295.766 351.482 293.032 350.763C290.297 350.044 287.497 351.678 286.778 354.413L235.579 549.155C234.86 551.89 236.494 554.69 239.229 555.409C241.964 556.128 244.764 554.494 245.483 551.759L296.681 357.017Z" fill="#594206"/>
<path id="Vector 33" d="M347.519 551.759C348.238 554.494 351.038 556.128 353.773 555.409C356.507 554.69 358.141 551.89 357.422 549.156L306.224 354.413C305.505 351.679 302.705 350.044 299.97 350.763C297.235 351.482 295.601 354.282 296.32 357.017L347.519 551.759Z" fill="#594206"/>
<path id="Vector 34" d="M687.27 341.14H192.1C189.598 341.14 187.57 343.168 187.57 345.67V351.76C187.57 354.262 189.598 356.29 192.1 356.29H687.27C689.772 356.29 691.8 354.262 691.8 351.76V345.67C691.8 343.168 689.772 341.14 687.27 341.14Z" fill="#9D7C28"/>
<path id="Vector 35" d="M223.507 357.02C224.225 354.285 222.591 351.485 219.857 350.766C217.122 350.047 214.322 351.681 213.603 354.416L162.404 549.158C161.685 551.893 163.32 554.693 166.054 555.412C168.789 556.131 171.589 554.497 172.308 551.762L223.507 357.02Z" fill="#9D7C28"/>
<path id="Vector 36" d="M274.344 551.76C275.063 554.494 277.862 556.128 280.597 555.409C283.332 554.691 284.966 551.891 284.247 549.156L233.048 354.414C232.329 351.679 229.53 350.045 226.795 350.764C224.06 351.483 222.426 354.283 223.145 357.017L274.344 551.76Z" fill="#9D7C28"/>
</g>
<g id="laptop">
<path id="Vector 37" d="M558.28 341.14H465.77L482.53 283.5C482.949 282.109 483.806 280.891 484.974 280.028C486.142 279.165 487.558 278.702 489.01 278.71H567.51C568.541 278.693 569.562 278.918 570.491 279.366C571.42 279.813 572.231 280.472 572.861 281.289C573.49 282.106 573.92 283.058 574.116 284.071C574.312 285.083 574.269 286.127 573.99 287.12L558.28 341.14Z" fill="#808080"/>
<path id="Vector 38" d="M476.76 337.09H411.85V341.14H476.76V337.09Z" fill="#878282"/>
</g>
</g>
</g>
<g id="books">
<path id="Vector 39" d="M697.1 114.89H688.23C686.816 114.89 685.67 116.036 685.67 117.45V176.27C685.67 177.684 686.816 178.83 688.23 178.83H697.1C698.514 178.83 699.66 177.684 699.66 176.27V117.45C699.66 116.036 698.514 114.89 697.1 114.89Z" fill="#C01616"/>
<path id="Vector 40" d="M704.53 129.88H701.79C700.614 129.88 699.66 130.834 699.66 132.01V176.7C699.66 177.876 700.614 178.83 701.79 178.83H704.53C705.706 178.83 706.66 177.876 706.66 176.7V132.01C706.66 130.834 705.706 129.88 704.53 129.88Z" fill="#D8D8D8"/>
<path id="Vector 41" d="M711.6 129.88H708.72C707.582 129.88 706.66 130.802 706.66 131.94V176.77C706.66 177.908 707.582 178.83 708.72 178.83H711.6C712.738 178.83 713.66 177.908 713.66 176.77V131.94C713.66 130.802 712.738 129.88 711.6 129.88Z" fill="#389241"/>
<path id="Vector 42" d="M716.676 133.383L714.313 134.468C713.209 134.975 712.725 136.281 713.232 137.385L731.819 177.872C732.326 178.977 733.632 179.461 734.737 178.954L737.1 177.869C738.204 177.362 738.688 176.056 738.181 174.952L719.593 134.465C719.086 133.361 717.78 132.876 716.676 133.383Z" fill="#40A4BA"/>
<path id="Vector 43" d="M692.66 162.65C694.819 162.65 696.57 160.899 696.57 158.74C696.57 156.581 694.819 154.83 692.66 154.83C690.501 154.83 688.75 156.581 688.75 158.74C688.75 160.899 690.501 162.65 692.66 162.65Z" fill="#FFFCFC"/>
<path id="Vector 44" d="M696.2 164.99H689.12C688.601 164.99 688.18 165.411 688.18 165.93C688.18 166.449 688.601 166.87 689.12 166.87H696.2C696.719 166.87 697.14 166.449 697.14 165.93C697.14 165.411 696.719 164.99 696.2 164.99Z" fill="#FFFCFC"/>
<path id="Vector 45" d="M696.2 169.8H689.12C688.601 169.8 688.18 170.221 688.18 170.74C688.18 171.259 688.601 171.68 689.12 171.68H696.2C696.719 171.68 697.14 171.259 697.14 170.74C697.14 170.221 696.719 169.8 696.2 169.8Z" fill="#FFFCFC"/>
<path id="Vector 46" d="M703.89 137.27C703.89 136.867 703.563 136.54 703.16 136.54C702.757 136.54 702.43 136.867 702.43 137.27V171.43C702.43 171.833 702.757 172.16 703.16 172.16C703.563 172.16 703.89 171.833 703.89 171.43V137.27Z" fill="#FFFCFC"/>
</g>
<g id="flower">
<path id="dark-leaf" d="M126.06 393C145.06 396.6 141.67 510 105.2 503.14C70.76 496.6 102.88 388.59 126.06 393Z" fill="#730385"/>
<path id="purple-leaf" d="M136.79 348.84C151.26 353.04 140.17 440.57 112.46 432.51C86.3 424.91 119.18 343.72 136.79 348.84Z" fill="#AB8DE5"/>
<g id="yellow-leaf">
<path id="Vector 47" d="M42.64 407C57.76 398.44 121.05 478.08 92.1 494.46C64.75 510 24.23 417.44 42.64 407Z" fill="#FBDC8E"/>
<path id="Vector 48" d="M160.65 418.48C170.65 427.1 129.97 493.04 110.75 476.48C92.6 460.91 148.44 408 160.65 418.48Z" fill="#FBDC8E"/>
</g>
<path id="blue-leaf" d="M100.7 357.94C122.36 357.94 142.19 496.24 100.7 496.24C61.52 496.24 74.33 357.94 100.7 357.94Z" fill="#78E5E1"/>
</g>
<g id="donica">
<path id="Vector 49" d="M119.69 557.92H81.51C79.9722 557.92 78.4885 557.352 77.3428 556.326C76.1971 555.301 75.4698 553.888 75.3 552.36L70.48 509.08C70.3755 508.202 70.4581 507.312 70.7224 506.469C70.9867 505.625 71.4266 504.847 72.0133 504.186C72.5999 503.524 73.32 502.995 74.1261 502.632C74.9322 502.269 75.806 502.081 76.69 502.08H124.31C125.187 502.081 126.054 502.266 126.855 502.623C127.655 502.981 128.372 503.503 128.958 504.156C129.543 504.808 129.985 505.577 130.254 506.412C130.523 507.246 130.614 508.128 130.52 509L125.91 552.28C125.756 553.824 125.035 555.255 123.886 556.297C122.737 557.339 121.241 557.918 119.69 557.92Z" fill="#850C54"/>
<path id="Vector 50" d="M138.71 492.72H62.51C60.2732 492.72 58.46 494.533 58.46 496.77V504.15C58.46 506.387 60.2732 508.2 62.51 508.2H138.71C140.947 508.2 142.76 506.387 142.76 504.15V496.77C142.76 494.533 140.947 492.72 138.71 492.72Z" fill="#C95F8B"/>
</g>
<g id="cloud">
<path id="Vector 51" d="M612.64 211.65H561.08C559.407 211.65 558.05 213.007 558.05 214.68V231.52C558.05 233.193 559.407 234.55 561.08 234.55H612.64C614.313 234.55 615.67 233.193 615.67 231.52V214.68C615.67 213.007 614.313 211.65 612.64 211.65Z" fill="#78E5E1"/>
<path id="Vector 52" d="M586.85 250.25L593.79 229.23H579.91L586.85 250.25Z" fill="#78E5E1"/>
<path id="Vector 53" d="M573.1 217.75L567.28 227.82H578.91L573.1 217.75Z" fill="white"/>
<path id="Vector 54" d="M600.61 227.82L606.43 217.75H594.79L600.61 227.82Z" fill="white"/>
<path id="Vector 55" d="M586.85 227.16C589.264 227.16 591.22 225.203 591.22 222.79C591.22 220.377 589.264 218.42 586.85 218.42C584.437 218.42 582.48 220.377 582.48 222.79C582.48 225.203 584.437 227.16 586.85 227.16Z" fill="white"/>
</g>
<g id="files">
<path id="Vector 56" d="M647.37 305H653.37C654 304.997 654.604 304.746 655.05 304.3C655.496 303.854 655.747 303.25 655.75 302.62V265.74C655.751 265.427 655.689 265.118 655.569 264.829C655.449 264.541 655.273 264.279 655.05 264.06L647.47 256.48C647.25 256.258 646.988 256.082 646.7 255.962C646.412 255.842 646.102 255.78 645.79 255.78H623.4C622.77 255.783 622.166 256.034 621.72 256.48C621.274 256.926 621.023 257.53 621.02 258.16V261.72" fill="#FBDC8E"/>
<path id="Vector 57" d="M637.29 261.72H615.29C614.937 261.72 614.588 261.79 614.262 261.925C613.936 262.06 613.64 262.259 613.391 262.508C613.142 262.758 612.945 263.055 612.811 263.381C612.677 263.708 612.609 264.057 612.61 264.41V308.21C612.61 308.922 612.892 309.604 613.394 310.109C613.897 310.613 614.578 310.897 615.29 310.9H644.68C645.392 310.897 646.073 310.613 646.576 310.109C647.078 309.604 647.36 308.922 647.36 308.21V271.81C647.361 271.458 647.293 271.108 647.159 270.782C647.025 270.456 646.829 270.16 646.58 269.91L639.18 262.51C638.679 262.007 638 261.723 637.29 261.72Z" fill="#FFFEFE"/>
<path id="Vector 58" d="M647.37 270.76H639.9C639.502 270.76 639.121 270.602 638.839 270.321C638.558 270.039 638.4 269.658 638.4 269.26V261.72" fill="#969696"/>
<path id="Vector 59" d="M655.78 264.83H648.31C647.91 264.827 647.528 264.667 647.245 264.385C646.963 264.102 646.803 263.72 646.8 263.32V255.78" fill="#64CCC4"/>
<path id="Vector 60" d="M624.56 266.24H617.48C616.961 266.24 616.54 266.661 616.54 267.18C616.54 267.699 616.961 268.12 617.48 268.12H624.56C625.079 268.12 625.5 267.699 625.5 267.18C625.5 266.661 625.079 266.24 624.56 266.24Z" fill="#969696"/>
<path id="Vector 61" d="M624.56 270.76H617.48C616.961 270.76 616.54 271.181 616.54 271.7C616.54 272.219 616.961 272.64 617.48 272.64H624.56C625.079 272.64 625.5 272.219 625.5 271.7C625.5 271.181 625.079 270.76 624.56 270.76Z" fill="#969696"/>
<path id="Vector 62" d="M642.92 278.49H617.07C616.551 278.49 616.13 278.911 616.13 279.43C616.13 279.949 616.551 280.37 617.07 280.37H642.92C643.439 280.37 643.86 279.949 643.86 279.43C643.86 278.911 643.439 278.49 642.92 278.49Z" fill="#969696"/>
<path id="Vector 63" d="M642.92 282.93H617.07C616.551 282.93 616.13 283.351 616.13 283.87C616.13 284.389 616.551 284.81 617.07 284.81H642.92C643.439 284.81 643.86 284.389 643.86 283.87C643.86 283.351 643.439 282.93 642.92 282.93Z" fill="#969696"/>
<path id="Vector 64" d="M642.92 287.37H617.07C616.551 287.37 616.13 287.791 616.13 288.31C616.13 288.829 616.551 289.25 617.07 289.25H642.92C643.439 289.25 643.86 288.829 643.86 288.31C643.86 287.791 643.439 287.37 642.92 287.37Z" fill="#969696"/>
</g>
<g id="mail">
<path id="Vector 65" d="M582.36 163.12H548.52C547.056 163.12 545.87 164.306 545.87 165.77V186.23C545.87 187.694 547.056 188.88 548.52 188.88H582.36C583.824 188.88 585.01 187.694 585.01 186.23V165.77C585.01 164.306 583.824 163.12 582.36 163.12Z" fill="white"/>
<path id="Vector 66" d="M547.1 163.93L565.44 176" stroke="#969696" stroke-width="0.82" stroke-linecap="round" stroke-linejoin="round"/>
<path id="Vector 67" d="M585.01 163.12L565.44 176" stroke="#969696" stroke-width="0.82" stroke-linecap="round" stroke-linejoin="round"/>
<path id="Vector 68" d="M585.01 168.72C588.103 168.72 590.61 166.213 590.61 163.12C590.61 160.027 588.103 157.52 585.01 157.52C581.917 157.52 579.41 160.027 579.41 163.12C579.41 166.213 581.917 168.72 585.01 168.72Z" fill="#FBDC8E"/>
<path id="1" d="M585.989 164.98H585.326V160.585L583.996 161.073V160.475L585.885 159.765H585.989V164.98Z" fill="white"/>
</g>
<g id="statistic">
<path id="Vector 69" d="M513.65 185.31H477.14C470.513 185.31 465.14 190.683 465.14 197.31V215.12C465.14 221.747 470.513 227.12 477.14 227.12H513.65C520.277 227.12 525.65 221.747 525.65 215.12V197.31C525.65 190.683 520.277 185.31 513.65 185.31Z" fill="#FFFEFE"/>
<path id="Vector 70" d="M486.76 192.04H477.66V220.39H486.76V192.04Z" fill="#AB8DE5"/>
<path id="Vector 71" d="M499.95 210.9H490.85V220.4H499.95V210.9Z" fill="#AB8DE5"/>
<path id="Vector 72" d="M513.13 202.9H504.03V220.39H513.13V202.9Z" fill="#AB8DE5"/>
</g>
<g id="lamp">
<path id="Vector 73" d="M229.12 101.96C229.12 98.4641 226.286 95.63 222.79 95.63C219.294 95.63 216.46 98.4641 216.46 101.96V123.81C216.46 127.306 219.294 130.14 222.79 130.14C226.286 130.14 229.12 127.306 229.12 123.81V101.96Z" fill="black"/>
<path id="Vector 74" d="M222.79 166.87C229.804 166.87 235.49 161.184 235.49 154.17C235.49 147.156 229.804 141.47 222.79 141.47C215.776 141.47 210.09 147.156 210.09 154.17C210.09 161.184 215.776 166.87 222.79 166.87Z" fill="#FBDC8E"/>
<path id="Vector 75" d="M222.79 115.88C217.761 115.879 212.781 116.868 208.134 118.792C203.487 120.715 199.265 123.536 195.708 127.091C192.152 130.647 189.33 134.869 187.406 139.515C185.481 144.161 184.49 149.141 184.49 154.17H261.09C261.09 149.141 260.099 144.161 258.174 139.515C256.25 134.869 253.428 130.647 249.872 127.091C246.315 123.536 242.093 120.715 237.446 118.792C232.799 116.868 227.819 115.879 222.79 115.88Z" fill="#B84C4C"/>
<path id="Vector 76" d="M222.79 102.92L223 48" stroke="black" stroke-width="2" stroke-linecap="round" stroke-linejoin="round"/>
</g>
<path id="laptop-light" d="M523.38 315.58C526.506 315.58 529.04 313.046 529.04 309.92C529.04 306.794 526.506 304.26 523.38 304.26C520.254 304.26 517.72 306.794 517.72 309.92C517.72 313.046 520.254 315.58 523.38 315.58Z" fill="#3EDCFF"/>
<g id="clock">
<g id="Layer 2 2">
<g id="Layer 2 3">
<path id="Vector 77" d="M486.002 132.755C504.423 132.755 519.357 116.656 519.357 96.7963C519.357 76.9366 504.423 60.8372 486.002 60.8372C467.581 60.8372 452.647 76.9366 452.647 96.7963C452.647 116.656 467.581 132.755 486.002 132.755Z" fill="#EF9E00"/>
<path id="Vector 78" d="M490.93 93.7714L485.928 90.7023L480.968 93.8376L481.001 100.042L486.002 103.107L490.967 99.9714L490.93 93.7714Z" stroke="white" stroke-width="2" stroke-miterlimit="10" stroke-linecap="round"/>
<path id="minutes" d="M486.113 96.9067V57.7151" stroke="white" stroke-width="2" stroke-miterlimit="10" stroke-linecap="round"/>
<path id="hours" d="M486.113 96.9067H509.145" stroke="white" stroke-width="2" stroke-miterlimit="10" stroke-linecap="round"/>
<path id="Vector 79" d="M457.534 98.1211C458.213 98.1211 458.763 97.528 458.763 96.7963C458.763 96.0647 458.213 95.4715 457.534 95.4715C456.855 95.4715 456.305 96.0647 456.305 96.7963C456.305 97.528 456.855 98.1211 457.534 98.1211Z" fill="white"/>
<path id="Vector 80" d="M514.392 98.1211C515.071 98.1211 515.621 97.528 515.621 96.7963C515.621 96.0647 515.071 95.4715 514.392 95.4715C513.713 95.4715 513.163 96.0647 513.163 96.7963C513.163 97.528 513.713 98.1211 514.392 98.1211Z" fill="white"/>
<path id="Vector 81" d="M485.965 129.695C486.644 129.695 487.194 129.102 487.194 128.37C487.194 127.639 486.644 127.046 485.965 127.046C485.286 127.046 484.736 127.639 484.736 128.37C484.736 129.102 485.286 129.695 485.965 129.695Z" fill="white"/>
<path id="Vector 82" d="M485.965 66.0613C486.644 66.0613 487.194 65.4681 487.194 64.7365C487.194 64.0048 486.644 63.4117 485.965 63.4117C485.286 63.4117 484.736 64.0048 484.736 64.7365C484.736 65.4681 485.286 66.0613 485.965 66.0613Z" fill="white"/>
</g>
</g>
</g>
<g id="glasses">
<g id="Layer 2 4">
<g id="Layer 2 5">
<path id="Vector 83" opacity="0.57" d="M379.34 182.916C384.765 184.069 389.86 181.728 390.719 177.687C391.578 173.646 387.876 169.435 382.45 168.282C377.025 167.128 371.93 169.47 371.071 173.511C370.212 177.552 373.914 181.763 379.34 182.916Z" fill="#FADB93"/>
<path id="Vector 84" opacity="0.57" d="M404.333 179.943C409.758 181.096 414.853 178.755 415.712 174.714C416.571 170.673 412.869 166.462 407.443 165.309C402.018 164.155 396.924 166.496 396.065 170.538C395.206 174.579 398.907 178.79 404.333 179.943Z" fill="#FADB93"/>
<path id="Vector 85" d="M375.849 181.301C381.275 182.454 386.369 180.113 387.228 176.072C388.087 172.03 384.385 167.819 378.96 166.666C373.534 165.513 368.44 167.854 367.581 171.895C366.722 175.937 370.424 180.147 375.849 181.301Z" stroke="black" stroke-width="0.41" stroke-linecap="round" stroke-linejoin="round"/>
<path id="Vector 86" d="M400.842 178.328C406.268 179.481 411.362 177.14 412.221 173.098C413.08 169.057 409.378 164.846 403.953 163.693C398.527 162.54 393.433 164.881 392.574 168.922C391.715 172.963 395.417 177.174 400.842 178.328Z" stroke="black" stroke-width="0.41" stroke-linecap="round" stroke-linejoin="round"/>
<path id="Vector 87" d="M367.573 171.894L346.985 162.128" stroke="black" stroke-width="0.41" stroke-linecap="round" stroke-linejoin="round"/>
<path id="Vector 88" d="M386.821 172.4L392.846 172.25" stroke="black" stroke-width="0.41" stroke-linecap="round" stroke-linejoin="round"/>
</g>
</g>
</g>
</g>
</svg>
